<svg xmlns="http://www.w3.org/2000/svg" class="editor-view__logo-preview" data-v-04588dbe="" data-v-0a059b40="" width="411.489990234375" height="78" viewBox="0 0 411.489990234375 78"><svg id="mark" viewBox="0 0 100 100" width="78" height="78" x="0" y="0" data-v-04588dbe="" style="fill: rgb(79, 50, 44);"><rect x="0" y="0" width="100%" height="100%" fill="none" data-v-04588dbe=""></rect><g data-v-04588dbe=""><g xmlns="http://www.w3.org/2000/svg"><path d="M74.988,37.5c0,13.807-11.182,25-24.988,25C50,55.604,44.396,50,37.5,50H24.988   C12.5,50,0,42.969,0,25C0,6.641,12.5,0,24.988,0H50c12.5,0,24.988,7.745,24.988,25V37.5z"></path></g><path xmlns="http://www.w3.org/2000/svg" d="M37.5,37.5"></path><path xmlns="http://www.w3.org/2000/svg" d="M37.5,37.5"></path><g xmlns="http://www.w3.org/2000/svg"><g><path d="M81.189,38.165C80.822,55.078,66.992,68.75,50,68.75h-6.25V62.5c0-3.448-2.808-6.25-6.25-6.25    H25.623c-0.391,1.935-0.635,4.004-0.635,6.25V75c0,13.807,11.205,25,25.012,25c0-6.909,5.604-12.5,12.5-12.5h12.488    C87.5,87.5,100,80.469,100,62.5C100,47.211,91.297,40.125,81.189,38.165z"></path></g></g></g></svg><svg id="name" viewBox="0 0 317.4853515625 44.3154296875" width="317.4853515625" height="44.3154296875" x="94" y="16.839996337890625" data-v-04588dbe="" style="fill: rgb(79, 50, 44);"><rect x="0" y="0" width="100%" height="100%" fill="none" data-v-04588dbe=""></rect><g data-v-04588dbe=""><path xmlns="http://www.w3.org/2000/svg" d="M6.74 1.80L6.74 34.50L0 34.50L0 1.80L6.74 1.80ZM12.42 10.20L18.53 10.20L18.73 13.00Q21.34 9.75 25.72 9.75L25.72 9.75Q29.58 9.75 31.47 12.02Q33.35 14.29 33.40 18.80L33.40 18.80L33.40 34.50L26.91 34.50L26.91 18.96Q26.91 16.89 26.01 15.96Q25.11 15.03 23.02 15.03L23.02 15.03Q20.28 15.03 18.91 17.36L18.91 17.36L18.91 34.50L12.42 34.50L12.42 10.20ZM39.60 4.22L46.09 4.22L46.09 10.20L50.25 10.20L50.25 14.96L46.09 14.96L46.09 27.09Q46.09 28.44 46.61 29.02Q47.12 29.60 48.58 29.60L48.58 29.60Q49.66 29.60 50.49 29.45L50.49 29.45L50.49 34.37Q48.58 34.95 46.56 34.95L46.56 34.95Q39.73 34.95 39.60 28.05L39.60 28.05L39.60 14.96L36.05 14.96L36.05 10.20L39.60 10.20L39.60 4.22ZM65.05 34.95L65.05 34.95Q59.70 34.95 56.34 31.67Q52.99 28.39 52.99 22.93L52.99 22.93L52.99 22.30Q52.99 18.64 54.40 15.76Q55.82 12.87 58.41 11.31Q61.00 9.75 64.33 9.75L64.33 9.75Q69.31 9.75 72.18 12.89Q75.04 16.04 75.04 21.81L75.04 21.81L75.04 24.46L59.57 24.46Q59.88 26.84 61.46 28.28Q63.05 29.72 65.47 29.72L65.47 29.72Q69.22 29.72 71.34 27.00L71.34 27.00L74.53 30.57Q73.07 32.64 70.57 33.79Q68.08 34.95 65.05 34.95ZM64.31 15.00L64.31 15.00Q62.37 15.00 61.17 16.31Q59.97 17.61 59.63 20.04L59.63 20.04L68.66 20.04L68.66 19.52Q68.62 17.36 67.50 16.18Q66.37 15.00 64.31 15.00ZM92.47 10.04L92.38 16.28Q91.06 16.10 90.05 16.10L90.05 16.10Q86.36 16.10 85.22 18.60L85.22 18.60L85.22 34.50L78.73 34.50L78.73 10.20L84.86 10.20L85.04 13.09Q86.99 9.75 90.45 9.75L90.45 9.75Q91.53 9.75 92.47 10.04L92.47 10.04ZM100.49 10.20L105.00 26.57L109.52 10.20L116.30 10.20L108.10 34.50L101.91 34.50L93.71 10.20L100.49 10.20ZM126.01 10.20L126.01 34.50L119.49 34.50L119.49 10.20L126.01 10.20ZM119.11 3.91L119.11 3.91Q119.11 2.45 120.09 1.50Q121.06 0.56 122.75 0.56L122.75 0.56Q124.41 0.56 125.40 1.50Q126.39 2.45 126.39 3.91L126.39 3.91Q126.39 5.39 125.39 6.33Q124.39 7.28 122.75 7.28Q121.11 7.28 120.11 6.33Q119.11 5.39 119.11 3.91ZM142.54 34.95L142.54 34.95Q137.19 34.95 133.83 31.67Q130.48 28.39 130.48 22.93L130.48 22.93L130.48 22.30Q130.48 18.64 131.89 15.76Q133.31 12.87 135.90 11.31Q138.49 9.75 141.82 9.75L141.82 9.75Q146.80 9.75 149.67 12.89Q152.53 16.04 152.53 21.81L152.53 21.81L152.53 24.46L137.06 24.46Q137.37 26.84 138.95 28.28Q140.54 29.72 142.96 29.72L142.96 29.72Q146.71 29.72 148.83 27.00L148.83 27.00L152.02 30.57Q150.56 32.64 148.06 33.79Q145.57 34.95 142.54 34.95ZM141.80 15.00L141.80 15.00Q139.86 15.00 138.66 16.31Q137.46 17.61 137.12 20.04L137.12 20.04L146.15 20.04L146.15 19.52Q146.11 17.36 144.99 16.18Q143.86 15.00 141.80 15.00ZM172.93 10.20L177.35 25.67L180.54 10.20L186.81 10.20L180.61 34.50L175.17 34.50L170.57 19.20L165.96 34.50L160.55 34.50L154.35 10.20L160.62 10.20L163.79 25.65L168.23 10.20L172.93 10.20ZM203.16 34.50L190.45 34.50L190.45 1.80L201.90 1.80Q207.85 1.80 210.93 4.08Q214.01 6.36 214.01 10.76L214.01 10.76Q214.01 13.16 212.77 14.99Q211.54 16.82 209.34 17.68L209.34 17.68Q211.85 18.31 213.30 20.21Q214.75 22.12 214.75 24.89L214.75 24.89Q214.75 29.60 211.74 32.03Q208.73 34.46 203.16 34.50L203.16 34.50ZM203.36 20.26L197.18 20.26L197.18 29.09L202.96 29.09Q205.34 29.09 206.67 27.95Q208.01 26.82 208.01 24.82L208.01 24.82Q208.01 20.33 203.36 20.26L203.36 20.26ZM197.18 7.25L197.18 15.50L202.17 15.50Q207.27 15.41 207.27 11.43L207.27 11.43Q207.27 9.21 205.98 8.23Q204.69 7.25 201.90 7.25L201.90 7.25L197.18 7.25ZM234.11 34.50L233.93 32.03Q231.53 34.95 227.28 34.95L227.28 34.95Q223.37 34.95 221.32 32.70Q219.26 30.46 219.22 26.12L219.22 26.12L219.22 10.20L225.71 10.20L225.71 25.90Q225.71 29.69 229.17 29.69L229.17 29.69Q232.47 29.69 233.71 27.40L233.71 27.40L233.71 10.20L240.22 10.20L240.22 34.50L234.11 34.50ZM244.11 22.17L244.11 22.17Q244.11 16.49 246.65 13.12Q249.20 9.75 253.63 9.75L253.63 9.75Q257.18 9.75 259.49 12.40L259.49 12.40L259.49 0L266.00 0L266.00 34.50L260.14 34.50L259.83 31.92Q257.40 34.95 253.58 34.95L253.58 34.95Q249.29 34.95 246.70 31.57Q244.11 28.19 244.11 22.17ZM250.60 22.64L250.60 22.64Q250.60 26.05 251.79 27.87Q252.98 29.69 255.25 29.69L255.25 29.69Q258.26 29.69 259.49 27.16L259.49 27.16L259.49 17.56Q258.28 15.03 255.29 15.03L255.29 15.03Q250.60 15.03 250.60 22.64ZM270.03 22.17L270.03 22.17Q270.03 16.49 272.57 13.12Q275.12 9.75 279.55 9.75L279.55 9.75Q283.10 9.75 285.41 12.40L285.41 12.40L285.41 0L291.92 0L291.92 34.50L286.06 34.50L285.75 31.92Q283.32 34.95 279.50 34.95L279.50 34.95Q275.21 34.95 272.62 31.57Q270.03 28.19 270.03 22.17ZM276.52 22.64L276.52 22.64Q276.52 26.05 277.71 27.87Q278.90 29.69 281.17 29.69L281.17 29.69Q284.18 29.69 285.41 27.16L285.41 27.16L285.41 17.56Q284.20 15.03 281.21 15.03L281.21 15.03Q276.52 15.03 276.52 22.64ZM301.52 10.20L306.03 25.31L310.52 10.20L317.49 10.20L307.71 38.27L307.18 39.55Q305.00 44.32 299.99 44.32L299.99 44.32Q298.57 44.32 297.11 43.89L297.11 43.89L297.11 38.97L298.10 38.99Q299.94 38.99 300.85 38.43Q301.76 37.87 302.28 36.57L302.28 36.57L303.04 34.57L294.53 10.20L301.52 10.20Z"></path></g></svg><!----></svg>