<svg width="56" height="56" viewBox="0 0 56 56" fill="none" xmlns="http://www.w3.org/2000/svg">
<path d="M46.8147 42.889C49.2809 39.9219 50.9961 36.4044 51.8153 32.6342C52.6344 28.864 52.5335 24.9519 51.521 21.229C50.5086 17.506 48.6143 14.0816 45.9985 11.2456C43.3827 8.40954 40.1223 6.24523 36.4931 4.93574C32.8639 3.62625 28.9727 3.21011 25.1487 3.72253C21.3247 4.23494 17.6804 5.66083 14.524 7.87958C11.3676 10.0983 8.79199 13.0446 7.01511 16.4693C5.23822 19.894 4.3123 23.6962 4.31568 27.5544C4.31698 33.1631 6.29346 38.5922 9.89831 42.889L9.86397 42.9182C9.98417 43.0625 10.1215 43.1861 10.2452 43.3286C10.3997 43.5055 10.5663 43.6721 10.726 43.8438C11.2068 44.3658 11.7014 44.8673 12.22 45.3378C12.378 45.482 12.5411 45.616 12.7008 45.7533C13.2503 46.2273 13.8153 46.6772 14.4008 47.0962C14.4764 47.1477 14.5451 47.2147 14.6206 47.2679V47.2473C18.6425 50.0775 23.4404 51.5965 28.3582 51.5965C33.2761 51.5965 38.074 50.0775 42.0959 47.2473V47.2679C42.1714 47.2147 42.2384 47.1477 42.3157 47.0962C42.8995 46.6755 43.4662 46.2273 44.0157 45.7533C44.1754 45.616 44.3385 45.4803 44.4965 45.3378C45.0151 44.8655 45.5097 44.3658 45.9905 43.8438C46.1502 43.6721 46.315 43.5055 46.4713 43.3286C46.5932 43.1861 46.7323 43.0625 46.8525 42.9165L46.8147 42.889ZM28.3565 13.8168C29.8849 13.8168 31.3789 14.27 32.6496 15.1191C33.9204 15.9682 34.9109 17.1751 35.4957 18.5871C36.0806 19.9991 36.2336 21.5528 35.9355 23.0518C35.6373 24.5507 34.9013 25.9276 33.8206 27.0083C32.7399 28.089 31.363 28.825 29.8641 29.1231C28.3651 29.4213 26.8114 29.2683 25.3994 28.6834C23.9874 28.0985 22.7805 27.1081 21.9314 25.8373C21.0823 24.5666 20.6291 23.0725 20.6291 21.5442C20.6291 19.4948 21.4432 17.5293 22.8924 16.0801C24.3416 14.6309 26.3071 13.8168 28.3565 13.8168ZM14.6309 42.889C14.6607 40.6343 15.577 38.4819 17.1816 36.8976C18.7862 35.3133 20.95 34.4244 23.2049 34.4232H33.5081C35.7631 34.4244 37.9269 35.3133 39.5315 36.8976C41.136 38.4819 42.0523 40.6343 42.0821 42.889C38.316 46.2828 33.4262 48.161 28.3565 48.161C23.2869 48.161 18.397 46.2828 14.6309 42.889Z" fill="#D68576"/>
</svg>
