<svg xmlns="http://www.w3.org/2000/svg" class="editor-view__logo-preview" data-v-04588dbe=""
    data-v-0a059b40="" width="78" height="78" viewBox="0 0 78 78">
    <svg id="mark" viewBox="0 0 100 100" width="78" height="78" x="0" y="0" data-v-04588dbe=""
        style="fill: #fff;">
        <rect x="0" y="0" width="100%" height="100%" fill="none" data-v-04588dbe=""></rect>
        <g data-v-04588dbe="">
            <g xmlns="http://www.w3.org/2000/svg">
                <path
                    d="M74.988,37.5c0,13.807-11.182,25-24.988,25C50,55.604,44.396,50,37.5,50H24.988   C12.5,50,0,42.969,0,25C0,6.641,12.5,0,24.988,0H50c12.5,0,24.988,7.745,24.988,25V37.5z"></path>
            </g>
            <path xmlns="http://www.w3.org/2000/svg" d="M37.5,37.5"></path>
            <path xmlns="http://www.w3.org/2000/svg" d="M37.5,37.5"></path>
            <g xmlns="http://www.w3.org/2000/svg">
                <g>
                    <path
                        d="M81.189,38.165C80.822,55.078,66.992,68.75,50,68.75h-6.25V62.5c0-3.448-2.808-6.25-6.25-6.25    H25.623c-0.391,1.935-0.635,4.004-0.635,6.25V75c0,13.807,11.205,25,25.012,25c0-6.909,5.604-12.5,12.5-12.5h12.488    C87.5,87.5,100,80.469,100,62.5C100,47.211,91.297,40.125,81.189,38.165z"></path>
                </g>
            </g>
        </g>
    </svg><!----><!---->
</svg>